<svg xmlns="http://www.w3.org/2000/svg">
  <symbol id="asterisk" viewBox="0 0 16 16">
    <path d="M1 6
             L3 3
             L15 10
             L13 13
             z
             M13 3
             L15 6
             L3 13
             L1 10
             z
             M6.25 1
             L9.75 1
             L9.75 15
             L6.25 15
             z" />
  </symbol>

  <symbol id="check" viewBox="0 0 16 16">
    <path d="M1 10
             L3 6.5
             L7 9
             L12 1
             L15 3
             L8 14.5
             z" />
  </symbol>

  <symbol id="close" viewBox="0 0 16 16">
    <path d="M1 4
             L4 1
             L15 12
             L12 15
             z
             M12 1
             L15 4
             L4 15
             L1 12
             z" />
  </symbol>

  <symbol id="open" viewBox="0 0 16 16">
    <path d="M1 1
             L15 1
             L15 4.5
             L1 4.5
             z
             M1 6.25
             L15 6.25
             L15 9.75
             L1 9.75
             z
             M1 11.5
             L15 11.5
             L15 15
             L1 15
             z" />
  </symbol>
</svg>
