<svg xmlns="http://www.w3.org/2000/svg">
  <symbol id="check" viewBox="0 0 16 16">
    <path d="M1 10
             L3 6.5
             L7 9
             L12 1
             L15 3
             L8 14.5
             z" />
  </symbol>

  <symbol id="close" viewBox="0 0 16 16">
    <path d="M1 4
             L4 1
             L8 5
             L12 1
             L15 4
             L11 8
             L15 12
             L12 15
             L8 11
             L4 15
             L1 12
             L5 8
             z" />
  </symbol>

  <symbol id="open" viewBox="0 0 16 16">
    <path d="M1 1
             L15 1
             L15 4.5
             L1 4.5
             z
             M1 6.25
             L15 6.25
             L15 9.75
             L1 9.75
             z
             M1 11.5
             L15 11.5
             L15 15
             L1 15
             z" />
  </symbol>
</svg>
